<svg fill="#000000" xmlns="http://www.w3.org/2000/svg"  viewBox="0 0 50 50" width="50px" height="50px"><path d="M 33.460938 1.7695312 L 29.289062 3.4003906 L 30.050781 7.2695312 C 29.830781 7.4695313 29.619922 7.680625 29.419922 7.890625 L 25.619141 7.0703125 L 24.570312 9.5195312 L 23.839844 11.210938 L 27.050781 13.269531 C 27.020781 13.529531 27.009766 13.76 27.009766 14 C 27.009766 14.18 27.019297 14.360547 27.029297 14.560547 L 23.75 16.460938 L 25.410156 20.650391 L 29.220703 19.880859 C 29.450703 20.150859 29.699219 20.400625 29.949219 20.640625 L 29.080078 24.380859 L 33.230469 26.150391 L 35.400391 22.970703 C 35.630391 22.990703 35.840781 23 36.050781 23 C 36.230781 23 36.419375 22.990469 36.609375 22.980469 L 38.519531 26.240234 L 40.460938 25.480469 L 42.710938 24.599609 L 41.970703 20.779297 C 42.330703 20.479297 42.660937 20.139297 42.960938 19.779297 L 46.439453 20.800781 L 48.259766 16.580078 L 45.050781 14.640625 C 45.070781 14.420625 45.080078 14.21 45.080078 14 C 45.080078 13.79 45.070781 13.569844 45.050781 13.339844 L 48.240234 11.439453 L 46.589844 7.25 L 42.820312 8.0605469 C 42.560313 7.7705469 42.290234 7.4904687 41.990234 7.2304688 L 42.830078 3.6191406 L 38.660156 1.8398438 L 36.619141 5.0195312 C 36.419141 5.0095313 36.240547 5 36.060547 5 C 35.880547 5 35.7 5.0095313 35.5 5.0195312 L 33.460938 1.7695312 z M 12 3 C 8.69 3 6 5.69 6 9 L 6 40 C 6 43.31 8.69 46 12 46 L 42 46 L 42 27.029297 L 39.25 28.099609 L 37.660156 28.730469 L 36.789062 27.25 L 35.919922 25.759766 L 34.880859 27.279297 L 33.960938 28.630859 L 32.449219 27.990234 L 28.300781 26.220703 L 26.75 25.560547 L 27.130859 23.929688 L 27.519531 22.259766 L 25.810547 22.609375 L 24.169922 22.939453 L 23.550781 21.390625 L 21.890625 17.199219 L 21.259766 15.589844 L 22.75 14.730469 L 24.259766 13.849609 L 22.759766 12.890625 L 21.330078 11.980469 L 22 10.419922 L 23.039062 8 L 17.910156 8 C 17.440156 5.16 14.97 3 12 3 z M 12 5 C 14.21 5 16 6.79 16 9 L 16 35.539062 C 14.94 34.589063 13.54 34 12 34 C 10.46 34 9.06 34.589063 8 35.539062 L 8 9 C 8 6.79 9.79 5 12 5 z M 36.050781 10 C 38.260781 10 40.060547 11.79 40.060547 14 C 40.060547 16.21 38.260781 18 36.050781 18 C 33.830781 18 32.029297 16.21 32.029297 14 C 32.029297 11.79 33.830781 10 36.050781 10 z M 36.050781 12 C 34.940781 12 34.029297 12.9 34.029297 14 C 34.029297 15.1 34.940781 16 36.050781 16 C 37.160781 16 38.060547 15.1 38.060547 14 C 38.060547 12.9 37.160781 12 36.050781 12 z"/></svg>